<svg width="65" height="64" viewBox="0 0 65 64" fill="none" xmlns="http://www.w3.org/2000/svg">
<path d="M4.76462 0.5L9.79212 56.9415L32.3511 63.2315L54.9731 56.9185L60.0046 0.5H4.76462ZM49.5601 13.431L47.8866 32.2335L47.8916 32.335L47.8846 32.5685V32.5665L46.6956 45.7135L46.5646 46.8815L32.3846 50.8035V50.804L32.3736 50.8135L18.2181 46.8695L17.2596 36H24.2011L24.6936 41.527L32.3866 43.612L32.3846 43.616V43.615L40.1061 41.5005L40.9221 32.5H24.7806L24.6421 30.9785L24.3266 27.414L24.1611 25.5H41.5356L42.1676 18.5H15.7046L15.5661 16.9795L15.2511 13.414L15.0851 11.5H49.7256L49.5601 13.431V13.431Z" fill="#808080"/>
</svg>
