<svg width="65" height="64" viewBox="0 0 65 64" fill="none" xmlns="http://www.w3.org/2000/svg">
<path d="M63.412 49.22C61.132 49.8 59.7221 49.245 58.4571 47.345C55.6171 43.09 52.4821 39.03 49.4571 34.895C49.0671 34.36 48.6621 33.835 48.1571 33.17C44.5771 38 41.002 42.6 37.647 47.385C36.447 49.095 35.187 49.84 32.947 49.235L46.4071 31.17L33.877 14.855C36.032 14.435 37.522 14.65 38.842 16.58C41.757 20.84 44.972 24.895 48.177 29.185C51.402 24.91 54.577 20.85 57.577 16.63C58.782 14.92 60.0771 14.27 62.2421 14.9C60.6021 17.075 58.997 19.215 57.382 21.34C55.202 24.205 53.062 27.105 50.802 29.91C49.997 30.91 50.127 31.56 50.847 32.505C55.027 38 59.157 43.55 63.412 49.22ZM0.742051 30.87C1.10205 29.065 1.34205 27.225 1.84205 25.455C4.84205 14.74 17.1421 10.285 25.5921 16.925C30.5421 20.82 31.7721 26.31 31.5271 32.5H3.62705C3.20705 43.605 11.2021 50.31 21.3921 46.89C24.9671 45.69 27.0721 42.89 28.1271 39.39C28.6621 37.635 29.5471 37.36 31.1971 37.86C30.3521 42.24 28.4371 45.9 24.4371 48.19C18.4371 51.62 9.87205 50.51 5.36705 45.745C2.70705 42.945 1.57705 39.46 1.07705 35.695C1.00205 35.095 0.847051 34.505 0.727051 33.91C0.737051 32.8966 0.742051 31.8833 0.742051 30.87V30.87ZM3.67705 30.125H28.8921C28.7271 22.095 23.7271 16.39 16.8921 16.34C9.39205 16.28 4.00205 21.85 3.67705 30.125V30.125Z" fill="#808080"/>
</svg>
