<svg width="64" height="65" viewBox="0 0 64 65" fill="none" xmlns="http://www.w3.org/2000/svg">
<path d="M22.7502 64.5C28.7002 64.5 33.5002 59.7 33.5002 53.75V43H22.7502C16.8002 43 12.0002 47.8 12.0002 53.75C12.0002 59.7 16.8002 64.5 22.7502 64.5ZM12.0002 32.25C12.0002 26.3 16.8002 21.5 22.7502 21.5H33.5002V43H22.7502C16.8002 43 12.0002 38.2 12.0002 32.25ZM12.0002 10.75C12.0002 4.8 16.8002 0 22.7502 0H33.5002V21.5H22.7502C16.8002 21.5 12.0002 16.7 12.0002 10.75ZM33.5002 0H44.2502C50.2002 0 55.0002 4.8 55.0002 10.75C55.0002 16.7 50.2002 21.5 44.2502 21.5H33.5002V0ZM55.0002 32.25C55.0002 38.2 50.2002 43 44.2502 43C38.3002 43 33.5002 38.2 33.5002 32.25C33.5002 26.3 38.3002 21.5 44.2502 21.5C50.2002 21.5 55.0002 26.3 55.0002 32.25Z" fill="#808080"/>
</svg>
