<svg width="64" height="64" viewBox="0 0 64 64" fill="none" xmlns="http://www.w3.org/2000/svg">
<g clip-path="url(#clip0_20_90)">
<path d="M62.371 29.189L34.8125 1.63202C33.2265 0.0450225 30.6525 0.0450225 29.064 1.63202L23.3425 7.35502L30.6015 14.614C32.289 14.0445 34.223 14.4265 35.5675 15.771C36.2082 16.4123 36.6555 17.221 36.8583 18.1046C37.061 18.9882 37.011 19.911 36.714 20.7675L43.71 27.7645C45.4025 27.181 47.356 27.558 48.707 28.912C50.597 30.8005 50.597 33.862 48.707 35.7515C48.2578 36.2009 47.7246 36.5573 47.1376 36.8005C46.5507 37.0438 45.9216 37.1689 45.2862 37.1689C44.6509 37.1689 44.0218 37.0438 43.4348 36.8005C42.8479 36.5573 42.3146 36.2009 41.8655 35.7515C41.1907 35.0763 40.7307 34.2166 40.5434 33.2805C40.3561 32.3444 40.4499 31.3739 40.813 30.491L34.289 23.9665L34.288 41.137C34.7613 41.3701 35.1935 41.6788 35.5675 42.051C37.457 43.9395 37.457 47 35.5675 48.8925C33.678 50.781 30.6155 50.781 28.728 48.8925C26.839 47.0005 26.684 43.94 28.5725 42.051C29.0395 41.5845 29.5 41.232 30 40.996V23.6665C29.5 23.4305 29.04 23.0805 28.572 22.611C27.1415 21.181 26.874 19.081 27.608 17.323L20.4915 10.1665L1.61447 29.0615C0.0269698 30.65 0.0369698 33.224 1.62447 34.8115L29.1875 62.3685C30.774 63.9555 33.35 63.9555 34.939 62.3685L62.369 34.9395C63.9565 33.3515 63.958 30.776 62.371 29.189V29.189Z" fill="#808080"/>
</g>
<defs>
<clipPath id="clip0_20_90">
<rect width="64" height="64" fill="white"/>
</clipPath>
</defs>
</svg>
