<svg width="65" height="64" viewBox="0 0 65 64" fill="none" xmlns="http://www.w3.org/2000/svg">
<path d="M9.65669 48.426L7.35669 47.0975L32.9817 2.71704L35.2802 4.04504L9.65669 48.426Z" fill="#808080"/>
<path d="M6.82874 43.5525H58.0767V46.2075H6.82874V43.5525Z" fill="#808080"/>
<path d="M33.4772 59.844L7.84473 45.045L9.17273 42.744L34.8057 57.545L33.4772 59.844ZM55.7447 21.2715L30.1122 6.4705L31.4402 4.172L57.0732 18.9705L55.7447 21.2715Z" fill="#808080"/>
<path d="M9.17872 21.2615L7.85022 18.961L33.4852 4.16199L34.8132 6.46099L9.17872 21.2615Z" fill="#808080"/>
<path d="M55.2722 48.426L29.6492 4.04504L31.9482 2.71704L57.5732 47.0975L55.2722 48.426ZM8.86169 17.199H11.5182V46.801H8.8622L8.86169 17.199Z" fill="#808080"/>
<path d="M53.4053 17.199H56.0613V46.801H53.4053V17.199Z" fill="#808080"/>
<path d="M33.0262 58.7205L31.8662 56.7105L54.1592 43.838L55.3192 45.848L33.0262 58.7205Z" fill="#808080"/>
<path d="M59.5807 47.664C58.0457 50.336 54.6217 51.248 51.9502 49.713C49.2782 48.176 48.3662 44.752 49.9012 42.08C51.4382 39.408 54.8622 38.496 57.5342 40.0315C60.2217 41.584 61.1337 44.992 59.5807 47.664M15.0067 21.92C13.4697 24.592 10.0457 25.504 7.37372 23.9685C4.70172 22.4315 3.78972 19.008 5.32522 16.336C6.86222 13.664 10.2857 12.752 12.9577 14.287C15.6297 15.84 16.5417 19.248 15.0067 21.92ZM5.34272 47.664C3.80522 44.992 4.71772 41.584 7.38922 40.031C10.0612 38.496 13.4692 39.408 15.0222 42.08C16.5572 44.752 15.6452 48.16 12.9732 49.713C10.2857 51.248 6.87772 50.336 5.34272 47.664M49.9167 21.92C48.3817 19.248 49.2937 15.84 51.9657 14.287C54.6377 12.752 58.0457 13.664 59.5982 16.336C61.1332 19.008 60.2217 22.416 57.5497 23.969C54.8777 25.504 51.4537 24.592 49.9167 21.92ZM32.4617 63.328C31.7282 63.3287 31.0018 63.1847 30.324 62.9043C29.6463 62.6239 29.0304 62.2126 28.5118 61.694C27.9931 61.1753 27.5818 60.5595 27.3014 59.8817C27.021 59.2039 26.8771 58.4775 26.8777 57.744C26.8771 57.0105 27.021 56.2841 27.3014 55.6063C27.5818 54.9285 27.9931 54.3127 28.5118 53.794C29.0304 53.2754 29.6463 52.8641 30.324 52.5837C31.0018 52.3033 31.7282 52.1593 32.4617 52.16C33.1952 52.1593 33.9216 52.3033 34.5994 52.5837C35.2772 52.8641 35.893 53.2754 36.4117 53.794C36.9303 54.3127 37.3416 54.9285 37.622 55.6063C37.9024 56.2841 38.0464 57.0105 38.0457 57.744C38.0457 60.8165 35.5497 63.328 32.4617 63.328ZM32.4617 11.84C31.7282 11.8407 31.0018 11.6967 30.324 11.4163C29.6463 11.1359 29.0304 10.7246 28.5118 10.2059C27.9931 9.6873 27.5818 9.07146 27.3014 8.39368C27.021 7.7159 26.8771 6.98949 26.8777 6.256C26.8771 5.52251 27.021 4.7961 27.3014 4.11832C27.5818 3.44054 27.9931 2.8247 28.5118 2.30605C29.0304 1.7874 29.6463 1.37611 30.324 1.09572C31.0018 0.815327 31.7282 0.671342 32.4617 0.671999C33.1952 0.671342 33.9216 0.815327 34.5994 1.09572C35.2772 1.37611 35.893 1.7874 36.4117 2.30605C36.9303 2.8247 37.3416 3.44054 37.622 4.11832C37.9024 4.7961 38.0464 5.52251 38.0457 6.256C38.0464 6.98949 37.9024 7.7159 37.622 8.39368C37.3416 9.07146 36.9303 9.6873 36.4117 10.2059C35.893 10.7246 35.2772 11.1359 34.5994 11.4163C33.9216 11.6967 33.1952 11.8407 32.4617 11.84" fill="#808080"/>
</svg>
