<svg width="65" height="64" viewBox="0 0 65 64" fill="none" xmlns="http://www.w3.org/2000/svg">
<path d="M0.857849 0.703979H63.4499V63.2965H0.857849V0.703979Z" fill="#808080"/>
<path d="M58.3273 48.3681C57.8688 45.5126 56.0068 43.1141 50.4913 40.8776C48.5753 39.9971 46.4393 39.3666 45.8028 37.9146C45.5768 37.0696 45.5468 36.5936 45.6898 36.0821C46.1003 34.4221 48.0818 33.9046 49.6523 34.3806C50.6638 34.7196 51.6213 35.4991 52.1988 36.7426C54.8998 34.9936 54.8943 35.0051 56.7803 33.8031C56.0898 32.7326 55.7213 32.2386 55.2693 31.7806C53.6448 29.9661 51.4313 29.0316 47.8913 29.1031L46.0473 29.3416C44.2803 29.7881 42.5963 30.7156 41.6088 31.9591C38.6458 35.3211 39.4908 41.2051 43.0963 43.6266C46.6483 46.2926 51.8663 46.8991 52.5328 49.3921C53.1813 52.4441 50.2898 53.4321 47.4158 53.0811C45.2978 52.6406 44.1198 51.5641 42.8463 49.6066C40.5023 50.9631 40.5023 50.9631 38.0923 52.3491C38.6638 53.5986 39.2643 54.1641 40.2223 55.2466C44.7563 59.8456 56.1023 59.6196 58.1373 52.6586C58.2198 52.4196 58.7678 50.8256 58.3273 48.3681V48.3681ZM34.8848 29.4716H29.0303L29.0063 44.6076C29.0063 47.8266 29.1728 50.7776 28.6493 51.6821C27.7928 53.4611 25.5733 53.2406 24.5618 52.8956C23.5323 52.3896 23.0088 51.6701 22.4023 50.6531C22.2358 50.3611 22.1108 50.1351 22.0688 50.1176L17.3088 53.0326C18.1003 54.6571 19.2663 56.0671 20.7598 56.9831C22.9908 58.3221 25.9893 58.7326 29.1253 58.0126C31.1663 57.4181 32.9273 56.1866 33.8493 54.3121C35.1823 51.8546 34.8963 48.8801 34.8843 45.5901C34.9143 40.2226 34.8848 34.8561 34.8848 29.4716V29.4716Z" fill="white"/>
</svg>
