<svg width="65" height="64" viewBox="0 0 65 64" fill="none" xmlns="http://www.w3.org/2000/svg">
<path fill-rule="evenodd" clip-rule="evenodd" d="M46.0919 28.641C45.9069 26.246 45.3439 23.9365 44.5609 21.674C42.9389 16.622 40.3359 12.151 36.6694 8.30397C35.7424 7.33097 34.7114 6.43947 34.0649 5.22847C33.6559 4.46247 33.2664 3.68597 32.8679 2.91397L32.6154 2.27747C32.5729 2.42347 32.5459 2.47547 32.5444 2.52797C32.5119 3.78647 31.7989 4.63997 30.9109 5.43647C29.9124 6.33297 28.9829 7.30597 28.0234 8.24547L25.0729 12.127C24.2769 13.5895 23.4819 15.052 22.6869 16.5145L21.0919 20.823L21.0439 20.89C20.1659 23.774 19.7329 26.739 19.5199 29.734C19.4399 30.8595 19.5309 32.0015 19.5944 33.133C19.6849 34.7505 19.9659 36.3405 20.3874 37.9055C21.9184 43.5915 25.0254 48.308 29.2729 52.315C30.0624 53.0595 30.8724 53.7365 31.6964 54.445C31.8374 53.9625 31.9499 53.48 32.0779 52.9975C32.2059 52.517 32.3354 52.039 32.4219 51.557C32.3349 52.039 32.2374 52.517 32.1409 52.9975L31.7279 54.445L32.0969 55.6955L32.4389 57.6375L32.6019 59.664C32.6004 60.0755 32.5839 60.488 32.6089 60.899C32.6149 61.004 32.7529 61.101 32.8299 61.202L33.5179 61.4435L34.2349 61.7225L34.1119 59.921L34.1064 58.147L34.3539 55.4445L34.5334 54.856L35.0469 53.946C35.6809 53.436 36.3614 52.973 36.9389 52.4055C37.9839 51.3785 39.0264 50.3385 39.9614 49.214C41.1784 47.7564 42.2175 46.1592 43.0569 44.456C43.6179 43.314 44.1459 42.149 44.5829 40.9555C44.9679 39.9035 45.2064 38.798 45.5099 37.716C45.5369 37.638 45.5729 37.5615 45.5899 37.482C46.2169 34.5615 46.3224 31.6115 46.0919 28.641V28.641ZM34.2924 53.3285L33.8899 52.447L34.2924 53.3285L34.8839 53.8335L34.2924 53.3285Z" fill="#808080"/>
</svg>
