<svg width="65" height="64" viewBox="0 0 65 64" fill="none" xmlns="http://www.w3.org/2000/svg">
<path d="M62.9695 61.3915L61.6615 60.123C60.422 58.477 58.8275 57.031 57.154 55.8305C55.8195 54.8725 52.8235 53.5785 52.2665 52.026L52.164 51.9285C53.1105 51.8215 54.2155 51.4795 55.089 51.245C56.556 50.852 57.767 50.9535 59.282 50.5625C59.965 50.3675 60.7315 50.172 61.2315 49.977V49.587C60.7315 48.8015 60.018 47.7615 59.183 47.0505C56.9985 45.1905 54.6625 43.332 52.2075 41.782C50.846 40.923 49.187 40.3645 47.7445 39.636C47.259 39.3905 46.4185 39.263 46.0975 38.855C45.339 37.889 44.9335 36.664 44.3485 35.5385C43.124 33.18 41.924 30.6045 40.839 28.123C40.099 26.431 39.6175 24.763 38.6945 23.245C34.2645 15.9615 29.497 11.566 22.111 7.24502C20.5385 6.32602 18.6465 5.96352 16.6465 5.48852C15.5745 5.42402 14.501 5.35852 13.428 5.29302C12.7725 5.02002 12.091 4.21852 11.477 3.82952C9.029 2.28352 2.7525 -1.07898 0.940004 3.34202C-0.204496 6.13252 2.65 8.85452 3.671 10.269C4.3885 11.26 5.306 12.3725 5.8175 13.488C6.155 14.2215 6.2125 14.957 6.501 15.7325C7.21 17.6435 7.8265 19.7225 8.7445 21.488C9.208 22.382 9.719 23.323 10.3055 24.122C10.6645 24.6125 11.2805 24.8285 11.378 25.5855C10.776 26.4285 10.7415 27.7375 10.403 28.8055C8.878 33.613 9.454 39.589 11.6715 43.147C12.3515 44.24 13.9545 46.5825 16.159 45.6835C18.087 44.8985 17.772 42.4645 18.3235 40.3175C18.448 39.8315 18.231 39.4735 18.731 39.147V39.2445C19.2426 40.4314 19.7898 41.6026 20.372 42.7565C21.672 44.85 23.8165 47.0375 25.771 48.5135C26.7845 49.279 27.731 50.602 28.731 51.05V50.9995H28.8415C28.588 50.4995 28.1905 50.416 27.8665 50.0975C27.103 49.3495 26.2535 48.4065 25.623 47.549C23.845 45.1355 22.274 42.488 20.8425 39.738C20.1585 38.425 19.564 36.9735 18.988 35.6375C18.7665 35.1225 18.769 34.3415 18.306 34.075C17.6745 35.054 16.745 35.845 16.2565 37.0015C15.476 38.8495 15.3755 41.1035 15.086 43.44C14.9145 43.501 14.991 43.459 14.8905 43.537C13.5315 43.2095 13.0545 41.811 12.549 40.6105C11.2715 37.5755 11.0345 32.689 12.1585 29.196C12.4495 28.2915 13.764 25.4455 13.2315 24.61C12.9775 23.7775 12.1395 23.295 11.671 22.6585C11.0905 21.8715 10.5115 20.8355 10.1095 19.9265C9.064 17.561 8.5765 14.9045 7.4755 12.5125C6.949 11.369 6.0595 10.2115 5.329 9.19552C4.5205 8.06902 3.6145 7.23952 2.987 5.87802C2.7645 5.39402 2.4615 4.61902 2.792 4.12152C2.897 3.78602 3.0455 3.64602 3.3775 3.53652C3.944 3.10002 5.519 3.68152 6.109 3.92602C7.6735 4.57602 8.9795 5.17602 10.305 6.05402C10.9405 6.47602 11.5845 6.99902 12.3535 7.49902H13.2315C14.605 7.49902 16.1435 7.61502 17.427 8.00502C19.6945 8.69452 21.727 9.77602 23.573 10.9415C29.196 14.4925 33.7935 19.5515 36.939 25.5805C37.445 26.5515 37.664 27.48 38.1095 28.5095C39.0085 30.586 40.1415 32.7235 41.036 34.754C41.929 36.7805 42.799 38.825 44.061 40.511C44.7245 41.397 47.2865 41.873 48.451 42.3655C49.2675 42.71 50.605 43.07 51.378 43.5355C52.8545 44.4265 54.285 45.4875 55.671 46.463C56.363 46.95 58.491 48.02 58.5975 48.902C55.166 48.808 52.5455 49.128 50.305 50.0725C49.6685 50.341 48.6525 50.3485 48.5485 51.146C48.8985 51.5125 48.953 52.0605 49.231 52.5115C49.7655 53.3765 50.669 54.5375 51.475 55.1455C52.356 55.8105 53.263 56.521 54.207 57.0965C55.8865 58.12 57.7605 58.705 59.3775 59.7305C60.3305 60.3355 61.3565 61.097 62.285 61.779C62.745 62.1165 62.7305 62.641 63.7305 62.8525V62.7555C63.231 62.358 63.2575 61.809 62.9695 61.3915V61.3915ZM14.988 11.7325C14.2725 11.719 13.731 11.811 13.231 11.927V12H13.33C13.6715 12.5 14.274 13.165 14.6955 13.769L15.6715 15.823L15.768 15.7295C16.3725 15.303 16.6495 14.624 16.646 13.584C16.4045 13.3295 16.368 13.011 16.159 12.707C15.88 12.3025 15.3395 12.073 14.988 11.7325V11.7325Z" fill="#808080"/>
</svg>
