<svg width="65" height="64" viewBox="0 0 65 64" fill="none" xmlns="http://www.w3.org/2000/svg">
<path d="M56.924 15.167L34.8755 2.36451C33.485 1.57251 31.6745 1.57251 30.273 2.36451L7.98895 15.167C6.55395 15.9925 5.53845 17.544 5.53845 19.2035V44.7745C5.53845 46.434 6.58045 47.986 8.01545 48.816L13.903 52.16C16.717 53.546 17.7115 53.546 18.992 53.546C23.1585 53.546 25.5385 51.0265 25.5385 46.632V21.387C25.5385 21.0305 25.353 20.5 25.003 20.5H22.1915C21.8355 20.5 21.0385 21.0305 21.0385 21.3865V46.6315C21.0385 48.5795 19.2765 50.518 15.9835 48.8715L9.89995 45.365C9.68795 45.25 9.53845 45.0185 9.53845 44.7745V19.2035C9.53845 18.9625 9.81595 18.7205 10.0295 18.597L32.2415 5.81651C32.449 5.69901 32.754 5.69901 32.961 5.81651L54.902 18.594C55.112 18.7205 55.038 18.955 55.038 19.2035V44.7745C55.038 45.0185 55.1295 45.256 54.922 45.3735L32.879 58.1615C32.69 58.275 32.4555 58.275 32.2485 58.1615L26.595 54.787C26.4245 54.688 26.222 54.6525 26.0585 54.744C24.4855 55.6355 24.1955 55.754 22.72 56.2655C22.357 56.392 21.8215 56.6115 22.925 57.23L30.324 61.607C31.0303 62.015 31.8317 62.2299 32.6475 62.23C33.4685 62.23 34.2725 62.017 34.981 61.607L56.9235 48.816C58.3585 47.98 59.0385 46.434 59.0385 44.7745V19.2035C59.0385 17.544 58.3585 15.9965 56.924 15.167V15.167ZM39.4935 40.7225C33.6305 40.7225 32.339 39.105 31.9085 36.1895C31.8585 35.8755 31.592 35.5 31.2725 35.5H28.407C28.0525 35.5 27.7675 35.93 27.7675 36.283C27.7675 40.016 29.797 44.539 39.494 44.539C46.5135 44.539 50.538 41.8115 50.538 36.9845C50.538 32.1985 47.3045 30.9425 40.497 30.0415C33.616 29.132 32.917 28.6725 32.917 27.0605C32.917 25.7315 33.509 23.959 38.604 23.959C43.1565 23.959 44.8345 24.936 45.525 28.0045C45.584 28.293 45.8475 28.5 46.145 28.5H49.022C49.199 28.5 49.368 28.4285 49.492 28.302C49.612 28.166 49.6755 27.9955 49.6595 27.8125C49.214 22.5285 45.7035 20.066 38.6035 20.066C32.288 20.066 28.5205 22.733 28.5205 27.2035C28.5205 32.0525 32.269 33.3925 38.3315 33.992C45.584 34.703 46.148 35.763 46.148 37.1895C46.148 39.667 44.159 40.7225 39.4935 40.7225Z" fill="#808080"/>
</svg>
