<svg width="65" height="64" viewBox="0 0 65 64" fill="none" xmlns="http://www.w3.org/2000/svg">
<path d="M32.9231 37.7001C36.0711 37.7001 38.6231 35.1481 38.6231 32C38.6231 28.852 36.0711 26.3 32.9231 26.3C29.7751 26.3 27.2231 28.852 27.2231 32C27.2231 35.1481 29.7751 37.7001 32.9231 37.7001Z" fill="#808080"/>
<path d="M54.5731 22.6C53.4731 22.2 52.3231 21.8001 51.1231 21.4501C51.4231 20.2501 51.6731 19.05 51.8731 17.9C52.9231 11.3 51.7731 6.65005 48.5731 4.85005C47.6231 4.30005 46.5731 4.05005 45.3731 4.05005C41.8731 4.05005 37.4231 6.65005 32.9231 11C28.4231 6.65005 23.9731 4.05005 20.4731 4.05005C19.2731 4.05005 18.2231 4.30005 17.2731 4.85005C14.0731 6.70005 12.9231 11.35 13.9731 17.9C14.1731 19.05 14.4231 20.2501 14.7231 21.4501C13.5231 21.8001 12.3731 22.15 11.2731 22.6C5.02311 25 1.62311 28.3 1.62311 32C1.62311 35.7 5.07311 39.0001 11.2731 41.4001C12.3731 41.8001 13.5231 42.2 14.7231 42.55C14.4231 43.75 14.1731 44.95 13.9731 46.1C12.9231 52.7 14.0731 57.3501 17.2731 59.1501C18.2231 59.7001 19.2731 59.9501 20.4731 59.9501C24.0231 59.9501 28.4731 57.35 32.9231 53C37.4231 57.35 41.8731 59.9501 45.3731 59.9501C46.5731 59.9501 47.6231 59.7001 48.5731 59.1501C51.7731 57.3001 52.9231 52.65 51.8731 46.1C51.6731 44.95 51.4231 43.75 51.1231 42.55C52.3231 42.2 53.4731 41.8501 54.5731 41.4001C60.8231 39.0001 64.2231 35.7 64.2231 32C64.2231 28.3 60.8231 25 54.5731 22.6V22.6ZM47.1731 7.35005C49.2231 8.55005 49.9231 12.25 49.0731 17.5C48.9231 18.55 48.6731 19.65 48.3731 20.8C45.7731 20.2 43.0231 19.8 40.1231 19.55C38.4231 17.15 36.6731 15 34.9231 13.05C38.6231 9.40005 42.3731 6.90005 45.4231 6.90005C46.0731 6.90005 46.6731 7.05005 47.1731 7.35005V7.35005ZM41.5731 37C40.6731 38.6 39.6231 40.2 38.5231 41.8C36.6731 41.95 34.8231 42 32.9231 42C30.9731 42 29.1231 41.95 27.3231 41.8C26.2231 40.2 25.2231 38.6 24.3231 37C23.3731 35.35 22.4731 33.65 21.6731 32C22.4731 30.35 23.3731 28.65 24.3231 27C25.2231 25.4 26.2731 23.8001 27.3731 22.2001C29.2231 22.0501 31.0731 22 32.9731 22C34.9231 22 36.7731 22.0501 38.5731 22.2001C39.6731 23.8001 40.6731 25.4 41.5731 27C42.5231 28.65 43.4231 30.35 44.2231 32C43.3731 33.65 42.5231 35.3 41.5731 37ZM45.7231 35.35C46.4731 37.1 47.0731 38.8 47.6231 40.5C45.9231 40.9 44.1231 41.2001 42.2231 41.4501C42.8231 40.5001 43.4731 39.5001 44.0231 38.4501C44.6231 37.4001 45.1731 36.35 45.7231 35.35ZM32.9231 48.9001C31.7231 47.6001 30.5731 46.2 29.4731 44.75C30.6231 44.8 31.7731 44.85 32.9231 44.85C34.0731 44.85 35.2231 44.8 36.3731 44.75C35.2731 46.2 34.1231 47.6001 32.9231 48.9001ZM23.6231 41.4001C21.7231 41.1501 19.9231 40.8501 18.2231 40.4501C18.7731 38.8001 19.3731 37.05 20.1231 35.3C20.6731 36.3 21.2231 37.35 21.8231 38.35C22.4231 39.45 23.0231 40.4001 23.6231 41.4001V41.4001ZM20.1231 28.65C19.3731 26.9 18.7731 25.2 18.2231 23.5C19.9231 23.1 21.7231 22.8 23.6231 22.55C23.0231 23.5 22.3731 24.5 21.8231 25.55C21.2231 26.6 20.6731 27.65 20.1231 28.65V28.65ZM32.9231 15.1C34.1231 16.4 35.2731 17.8 36.3731 19.25C35.2231 19.2 34.0731 19.15 32.9231 19.15C31.7731 19.15 30.6231 19.2 29.4731 19.25C30.5731 17.8 31.7231 16.4 32.9231 15.1ZM44.0231 25.6L42.2231 22.6C44.1231 22.85 45.9231 23.15 47.6231 23.55C47.0731 25.2 46.4731 26.9501 45.7231 28.7001C45.1731 27.6501 44.6231 26.6 44.0231 25.6ZM16.7731 17.5C15.9231 12.25 16.6231 8.55005 18.6731 7.35005C19.1731 7.05005 19.7731 6.90005 20.4231 6.90005C23.4231 6.90005 27.1731 9.35005 30.9231 13.05C29.1731 14.95 27.4231 17.15 25.7231 19.55C22.8231 19.8 20.0731 20.25 17.4731 20.8C17.1731 19.65 16.9731 18.55 16.7731 17.5V17.5ZM4.42311 32C4.42311 29.65 7.27311 27.15 12.2731 25.3C13.2731 24.9 14.3731 24.55 15.4731 24.25C16.2731 26.75 17.2731 29.4 18.4731 32.05C17.2731 34.7 16.2231 37.3 15.4731 39.8C8.57311 37.8 4.42311 34.8 4.42311 32ZM18.6731 56.6501C16.6231 55.4501 15.9231 51.75 16.7731 46.5C16.9231 45.45 17.1731 44.3501 17.4731 43.2001C20.0731 43.8001 22.8231 44.2001 25.7231 44.4501C27.4231 46.8501 29.1731 49.0001 30.9231 50.9501C27.2231 54.6001 23.4731 57.1 20.4231 57.1C19.7731 57.1 19.1731 56.9501 18.6731 56.6501ZM49.0731 46.5C49.9231 51.75 49.2231 55.4501 47.1731 56.6501C46.6731 56.9501 46.0731 57.1 45.4231 57.1C42.4231 57.1 38.6731 54.6501 34.9231 50.9501C36.6731 49.0501 38.4231 46.8501 40.1231 44.4501C43.0231 44.2001 45.7731 43.7501 48.3731 43.2001C48.6731 44.3501 48.8731 45.45 49.0731 46.5V46.5ZM53.5731 38.7001C52.5731 39.1001 51.4731 39.45 50.3731 39.75C49.5731 37.25 48.5731 34.6001 47.3731 31.9501C48.5731 29.3001 49.6231 26.7001 50.3731 24.2001C57.2731 26.2001 61.4231 29.2 61.4231 32C61.4231 34.35 58.5231 36.8501 53.5731 38.7001Z" fill="#808080"/>
</svg>
