<svg width="65" height="64" viewBox="0 0 65 64" fill="none" xmlns="http://www.w3.org/2000/svg">
<path d="M12.1042 23.5H61.9392V60.335H12.1042V23.5Z" fill="white"/>
<path d="M1.51923 31.955V63.205H64.0192V0.704956H1.51923V31.955ZM51.8842 29.455C53.3812 29.8023 54.7417 30.5853 55.7942 31.705C56.3737 32.3082 56.8774 32.9798 57.2942 33.705C57.2942 33.785 54.5942 35.61 52.9492 36.63C52.8892 36.67 52.6492 36.41 52.3842 36.015C52.0839 35.4968 51.6572 35.0631 51.144 34.7545C50.6308 34.4459 50.0477 34.2723 49.4492 34.25C47.5542 34.12 46.3342 35.115 46.3442 36.75C46.3286 37.157 46.4218 37.5609 46.6142 37.92C47.0292 38.785 47.8042 39.3 50.2342 40.35C54.7092 42.275 56.6242 43.545 57.8142 45.35C59.1442 47.35 59.4392 50.58 58.5392 52.97C57.5392 55.57 55.0892 57.335 51.6242 57.92C50.0416 58.1012 48.4426 58.0844 46.8642 57.87C44.4451 57.4712 42.2166 56.3097 40.5042 54.555C39.9292 53.92 38.8092 52.265 38.8792 52.145C39.0618 52.0095 39.2539 51.8875 39.4542 51.78L41.7692 50.5L43.5642 49.46L43.9392 50.015C44.5721 50.9203 45.3775 51.6917 46.3092 52.285C48.3092 53.335 51.0392 53.19 52.3892 51.975C52.8425 51.5297 53.1253 50.9396 53.1883 50.3074C53.2513 49.6752 53.0907 49.0409 52.7342 48.515C52.2342 47.82 51.2342 47.235 48.4392 46.015C45.2142 44.625 43.8242 43.765 42.5542 42.395C41.7614 41.4909 41.176 40.4243 40.8392 39.27C40.588 37.9512 40.5509 36.6005 40.7292 35.27C41.3942 32.155 43.7292 29.98 47.1392 29.335C48.7184 29.1396 50.3181 29.1834 51.8842 29.465V29.455ZM37.2142 32.075V34.635H29.0992V57.75H23.3442V34.63H15.2092V32.13C15.1839 31.2678 15.2039 30.405 15.2692 29.545C15.3092 29.5 20.2692 29.5 26.2692 29.5H37.1842L37.2142 32.075Z" fill="#808080"/>
</svg>
