<svg width="128" height="111" viewBox="0 0 100 100" fill="none" xmlns="http://www.w3.org/2000/svg">
<path d="M0.577352 69.9532C-0.835316 68.2579 0.483173 66.3744 3.02598 65.1501C5.4746 63.9258 5.9455 62.0422 5.19207 60.3471C2.74344 54.7906 1.99002 53.2837 2.55509 51.0235C3.12015 49.0457 4.72118 47.7272 6.60474 47.633C8.39412 47.5388 9.61843 48.3864 10.3719 49.8933C11.0311 51.2118 10.8427 53.3778 9.14754 54.508C8.77083 54.6963 8.11159 55.0731 7.73488 54.6964C7.1698 54.3197 7.45234 53.9429 7.92323 53.4721C10.3719 51.5884 7.73488 48.2923 5.66296 49.8933C3.40269 51.5884 4.34447 54.3197 7.45234 61.0063C7.73488 61.5714 8.39412 62.419 9.52425 61.8539C11.6903 60.9122 14.4216 59.6878 17.0585 58.4635C21.8615 56.2032 26.1937 53.4721 30.6201 50.5526C31.1851 50.1758 31.9386 49.1399 32.5979 50.1758C33.1629 51.0235 32.2211 51.4001 31.5619 51.871C25.3461 56.2974 18.8479 59.9703 11.6903 62.7014C9.43008 63.5491 7.73488 65.0559 7.1698 67.2221C6.51056 69.5765 2.36673 72.1193 0.577352 69.9532ZM3.59105 68.9173C5.75714 68.0696 6.60474 64.9618 4.72118 65.9036C0.67153 67.8813 1.80167 69.6707 3.59105 68.9173ZM68.1029 50.0816C69.0447 50.835 68.0087 51.4943 67.5378 51.871C62.4522 56.8625 58.0259 61.383 51.9985 65.1501C50.8683 65.8093 49.8324 66.4687 48.7023 66.9395C46.5361 67.7871 44.3701 67.8813 42.4865 66.3744C40.5088 64.7734 40.603 62.5131 41.0738 60.3471C41.4506 58.746 42.0156 57.1449 42.4865 55.6381C38.3427 57.6159 35.8941 61.8539 32.0328 64.3025C30.7143 65.1501 29.49 66.0919 28.0774 66.7511C26.3821 67.5045 24.7811 67.8813 23.2743 66.5628C21.8615 65.2442 21.7674 63.4549 22.1441 61.7597C23.5567 55.0731 31.5619 48.4807 38.531 48.2923C39.8495 48.2923 41.2622 48.7632 42.4865 49.5166C43.0516 49.8933 43.5224 50.835 44.3701 50.3641C45.406 49.7992 46.2537 48.0098 47.3838 49.8933C48.2314 51.1176 47.0071 52.1535 46.5361 53.2837C45.406 55.6381 43.8992 57.8984 43.3341 60.5354C42.9575 62.2306 42.3924 63.8316 44.0875 65.1501C45.7827 66.3744 47.2897 65.8093 48.8906 64.9617C52.2811 63.3608 55.2947 61.1005 58.0259 58.4635C60.8512 55.7323 63.3941 53.7546 66.2194 51.0235C66.6903 50.4584 67.3495 49.5166 68.1029 50.0816ZM40.5088 54.3197C41.2622 53.5663 42.1098 52.7186 41.6389 51.4943C40.9796 49.8933 39.4728 50.6467 38.531 50.4584C32.7862 50.4584 26.6646 55.1672 24.4986 61.1005C24.0277 62.6073 23.1801 64.1142 24.7811 65.3385C26.1937 66.5628 27.5123 65.4327 28.5482 64.7734C33.1629 62.0422 36.7416 58.0868 40.5088 54.3197ZM73.0002 41.1348C71.9642 41.2289 71.3049 40.5697 71.1166 39.5337C70.7399 37.1793 72.906 36.8026 74.2245 36.1434C75.1663 35.6724 75.8256 36.6142 76.108 37.6502C75.543 39.1571 74.9779 40.8522 73.0002 41.1348ZM68.5738 67.1279C65.0892 68.1638 62.2639 65.8093 62.5464 62.0422C63.5824 58.0868 65.466 54.1313 67.3495 50.1758C67.7263 49.4224 68.3855 48.7632 69.1389 49.3282C70.0806 49.9875 69.2331 50.7409 68.9506 51.4001C67.7263 54.2255 66.3135 57.0508 65.2776 59.9703C64.7126 61.6656 63.959 63.6433 65.8426 65.2442C67.0669 66.1861 69.1389 65.2442 70.6457 64.6793C76.579 62.2306 81.2878 55.3557 88.1629 50.27C88.6337 49.9875 89.0104 49.2341 89.5755 49.9875C90.0463 50.5526 89.4813 51.0235 89.0104 51.306C79.8751 57.8984 78.1799 64.3967 68.5738 67.1279ZM94.8494 45.9378C89.1988 50.0816 88.1629 56.8625 85.7141 62.8899C84.8666 64.8676 86.5618 64.02 87.4094 63.5491C98.5224 57.5217 109.259 52.1535 116.981 49.8933C117.452 49.7992 118.3 49.7049 118.394 50.5526C118.488 51.0235 118.017 51.2118 117.546 51.4001C116.228 51.871 114.815 52.1535 113.497 52.5303C109.259 53.5663 93.1543 62.3248 91.5532 63.1724C89.0104 64.585 86.1851 65.3385 84.9607 67.0336C83.0772 69.4823 86.5618 72.1193 87.1269 74.8504C87.9744 78.5234 87.1269 81.8196 86.1851 85.0216C83.7364 93.686 79.4985 101.691 73.8477 108.943C73.7536 109.131 73.6594 109.225 73.5652 109.32C72.6234 110.45 71.6817 111.58 69.9865 110.638C68.5738 109.885 69.2331 108.566 69.5156 107.342C71.4934 96.1346 74.8837 85.3042 78.8392 74.6621C79.1217 73.7203 79.4042 72.8727 79.781 72.0252C80.9111 69.7648 80.4402 68.823 77.8033 69.5764C76.8614 69.2939 75.2605 70.2358 74.9779 68.823C74.6012 67.2221 76.4848 66.4687 77.4265 66.5628C82.3238 66.9395 82.8888 63.3608 84.3958 60.0645C91.7415 43.3008 98.7108 26.443 109.447 11.4687C112.178 7.79577 115.003 4.31118 118.771 1.6742C120.936 0.26153 123.48 -0.868604 125.74 0.92078C127.906 2.71016 128.472 5.25296 127.623 8.17248C125.551 15.1417 121.408 20.6982 116.605 25.9721C109.918 33.2238 102.76 40.0046 94.8494 45.9378ZM117.735 5.0646C112.743 9.20843 109.541 14.8591 106.151 20.3214C101.442 27.7615 97.0156 35.3899 94.4728 43.8659C102.007 38.9686 108.599 32.9412 114.533 26.1604C118.771 21.2633 122.821 16.2717 125.174 10.2444C126.117 7.70158 127.435 4.40536 124.515 2.5218C121.785 0.638242 119.712 3.46358 117.735 5.0646ZM84.4899 72.3076C84.2073 71.7426 84.1132 70.7066 83.0772 70.7066C82.0413 70.8007 82.0413 71.7426 81.7587 72.4018C79.0276 79.6535 76.2022 86.811 74.4128 94.3452C73.2828 98.8658 71.3049 103.386 71.7759 108.189C78.6508 101.032 82.5121 92.2733 85.0549 82.7614C86.0909 79.1826 86.0909 75.698 84.4899 72.3076ZM71.5875 108.378C71.3991 108.284 71.3049 108.378 71.4934 108.566C71.5875 108.472 71.5875 108.378 71.5875 108.378Z" fill="#050505"/>
</svg>
